# xmcd
#
# Track frame offsets:
#	150
#	19946
#	35739
#	53383
#	72796
#	92155
#	111221
#	127623
#	151060
#	168512
#
# Disc length: 2443 seconds
#
# Revision: 4
# Processed by: cddbd v1.5.2PL0 Copyright (c) Steve Scherf et al.
# Submitted via: EasyCDDAExtractor 15.3.0.1
#
DISCID=7309890a
DTITLE=David DeMaria
DYEAR=2005
DGENRE=Latin
TTITLE0=Precisamente Ahora
TTITLE1=Amores
TTITLE2=La Ciudad Perdida
TTITLE3=Cada Vez Que Estoy Sin Ti
TTITLE4=Barcos De Papel
TTITLE5=La Chica De Las Botas Rojas
TTITLE6=Sin Miedo A Perder
TTITLE7=He Dejado De Creer
TTITLE8=Niña, Piensa En Ti
TTITLE9=Petalos Marchitos
EXTD=YEAR: 2005
EXTT0=
EXTT1=
EXTT2=
EXTT3=
EXTT4=
EXTT5=
EXTT6=
EXTT7=
EXTT8=
EXTT9=
PLAYORDER=
